<?xml version="1.0" encoding="utf-8"?>
<!-- Generator: Adobe Illustrator 22.0.0, SVG Export Plug-In . SVG Version: 6.00 Build 0)  -->
<svg version="1.1" id="Layer_1" xmlns="http://www.w3.org/2000/svg" xmlns:xlink="http://www.w3.org/1999/xlink" x="0px" y="0px"
	 viewBox="0 0 300 300" style="enable-background:new 0 0 300 300;" xml:space="preserve">
<style type="text/css">
	.st0{fill:#FFFFFF;}
	.st1{fill:#97D6F5;}
	.st2{fill:#FFC5FF;}
	.st3{fill:#FFEC96;}
	.st4{fill:#88AA78;}
	.st5{fill:#52BBEF;}
	.st6{fill:#75C9F2;}
</style>
<title>Coding website</title>
<circle class="st0" cx="34" cy="107.2" r="4"/>
<path class="st0" d="M277.6,126v147.8c0,8.6-7,15.6-15.6,15.6H21.3c-8.6,0-15.6-7-15.6-15.6V126H277.6z"/>
<rect x="257" y="183.9" class="st1" width="29.3" height="37.3"/>
<rect x="286.3" y="183.9" class="st0" width="8" height="37.3"/>
<rect x="219.8" y="183.9" class="st2" width="37.3" height="37.3"/>
<rect x="219.8" y="221.2" class="st2" width="37.3" height="37.3"/>
<path class="st3" d="M277.6,116.6v9.4H5.7v-9.4c0-8.6,7-15.6,15.6-15.6H262C270.6,101,277.6,108,277.6,116.6
	C277.6,116.6,277.6,116.6,277.6,116.6z"/>
<circle cx="51.1" cy="146.3" r="6.2"/>
<circle cx="40.9" cy="155.4" r="6.2"/>
<circle cx="29.1" cy="149.2" r="6.2"/>
<circle class="st0" cx="39.2" cy="113.5" r="5.2"/>
<circle class="st0" cx="56.6" cy="113.5" r="5.2"/>
<path class="st4" d="M108.9,189.3L92.8,198l-8.7-16h15.8v-10H62l-5.9,22.1h10.7l1-3.8l12.7,20.3c2.8,4.4,7.6,7.1,12.8,7.2
	c2.9,0,5.8-0.7,8.3-2.1l9.4-5l8.4,17.5l23.4-11.2l-13.4-21.2c0,0-1.6-4-7.9-6.8C117.4,187.5,112.9,187.6,108.9,189.3z"/>
<path class="st5" d="M229.1,278.2h21.6c3.3,0,6-2.7,6-6v-0.1c0-3.3-2.7-6-6-6l0,0h-21.6c-3.3,0-6,2.7-6,6l0,0v0.1
	C223.1,275.6,225.8,278.2,229.1,278.2L229.1,278.2z"/>
<path class="st3" d="M144.4,278.2h61.8c3.3,0,6-2.7,6-6l0,0v-0.1c0-3.3-2.7-6-6-6l0,0h-61.8c-3.3,0-6,2.7-6,6l0,0v0.1
	C138.5,275.6,141.1,278.2,144.4,278.2z"/>
<path class="st6" d="M28.5,278.2h93.1c3.3,0,6-2.7,6-6v-0.1c0-3.3-2.7-6-6-6H28.5c-3.3,0-6,2.7-6,6l0,0v0.1
	C22.5,275.6,25.2,278.2,28.5,278.2L28.5,278.2z"/>
<path class="st6" d="M171.9,254.2h8.2c3.3,0,6-2.7,6-6l0,0v-0.1c0-3.3-2.7-6-6-6l0,0H172c-3.3,0-6,2.7-6,6l0,0v0.1
	C166,251.5,168.6,254.2,171.9,254.2C171.9,254.2,171.9,254.2,171.9,254.2z"/>
<path class="st4" d="M100.2,254.2H149c3.3,0,6-2.7,6-6l0,0v-0.1c0-3.3-2.7-6-6-6l0,0h-48.8c-3.3,0-6,2.7-6,6l0,0v0.1
	C94.3,251.5,96.9,254.2,100.2,254.2z"/>
<path class="st3" d="M28.5,254.2h48.4c3.3,0,6-2.7,6-6l0,0v-0.1c0-3.3-2.7-6-6-6l0,0H28.5c-3.3,0-6,2.7-6,6l0,0v0.1
	C22.5,251.5,25.2,254.2,28.5,254.2C28.5,254.2,28.5,254.2,28.5,254.2z"/>
<path class="st6" d="M28.5,230.2h73.4c3.3,0,6-2.7,6-6l0,0v-0.1c0-3.3-2.7-6-6-6l0,0H28.5c-3.3,0-6,2.7-6,6l0,0v0.1
	C22.5,227.5,25.2,230.2,28.5,230.2L28.5,230.2z"/>
<rect x="219.8" y="183.9" class="st3" width="37.3" height="37.3"/>
<rect x="219.8" y="221.2" class="st4" width="37.3" height="37.3"/>
<path class="st0" d="M126.4,182H99.9v-10h26.2c0,0,5,0.3,5,5.1S126.4,182,126.4,182z"/>
<rect x="109.9" y="143.8" width="42.7" height="28"/>
<path class="st0" d="M56,194.1l-4.5,16.7H39.9c-1.9,0.1-3.5,1.6-3.7,3.5c-0.3,3.8,3.8,3.8,3.8,3.8l20.3,0l6.4-24.1L56,194.1z"/>
<polygon points="119.3,228.3 125.7,241.5 157.6,227.2 132.9,221.8 "/>
<path class="st4" d="M252.7,78.7h-50.7c0,0-9.5,0.1-14,8c-2.5,4.4-2.8,9.6-1,14.3l21.6,42.9l25-11.7l-16.2-31.1l21.1-0.1
	c0,0,9.1-0.4,13.3-8.8C254,88,254.3,83.1,252.7,78.7z"/>
<path class="st3" d="M198.2,65.8l0.1-0.2l1-1.2l-12.5-7.1l8.4-15.8c0,0,4.1-9,13.4-9.2c5.2-0.2,10.2,2,13.4,6.1l24.5,31.5l3.4,4.4
	l1.5,2.2l1,2.2l-44.5-0.1L198.2,65.8z"/>
<path class="st6" d="M179.6,28.3c0,0-6-5.5-2.9-11.7c3.8-7.6,10.2-5.7,11-5.8c1-0.1,3.5,1.5,4.1,1.9c0.8,0.7,1.5,1.4,2.2,2.2
	L179.6,28.3z"/>
<polygon class="st5" points="172.2,93.9 120.3,93.9 122.3,100.8 174.2,100.8 "/>
<polygon points="79.4,58.6 91.8,100.8 122.3,100.8 120.3,93.9 96.2,93.9 86.4,58.6 "/>
<polyline class="st0" points="128.4,58.6 86.4,58.6 96.2,93.9 138.7,93.9 128.8,58.6 128.4,58.3 "/>
<path d="M210.6,171.4l34.6-17l-11.6-22.2l-15.8,7.5l2.9,12.6l-16.1,8.4c-2.9,1.6-4,5.2-2.5,8.2C202,168.8,204.9,174.1,210.6,171.4z"
	/>
<path class="st0" d="M69.5,155.2l-1.5-3c-0.5-1-1.4-1.9-2.4-2.5l-8.2,12.8l4.7,9.3h16.6l-6-11l2.3-2.9L69.5,155.2z"/>
<path d="M56.7,150.5c-1.9,2-2.5,4.9-1.8,7.5l2.4,4.6l8.2-12.8C62.8,148,59.2,148.3,56.7,150.5z"/>
<path class="st0" d="M200.2,35.4c-1.5,1.4-2.9,3-4.1,4.7l-2.1,4l-6.4-7c0,0-0.7,0.8-2.1,1.9c-1.3,1.2-3.1-0.1-3.1-0.1
	c-1-1-1.1-2.7-0.1-3.8l1.9-1.8l-4.6-5L194,14.9l15.4,17.3C206.1,32.3,202.9,33.4,200.2,35.4z"/>
<path class="st0" d="M186.9,57.2l-11.4,21.4l-4.4-3c-1.4-1-3.1-1.6-4.9-1.6c-2.9,0-5,2.9-5.7,3.9s-6,8.7-6,8.7s-2.3,4,1.4,6.3
	c0,0,3.5,1.3,5.5-1.6l2.2-3.3l8.2,5.3c1.9,1,4,1.4,6.1,1.2c3.7-0.3,6.3-3.3,7.7-5.8c1.4-2.5,13.7-24.2,13.7-24.2L186.9,57.2z"/>
<path d="M21.8,119.3c3.2,0,5.8-2.6,5.8-5.8s-2.6-5.8-5.8-5.8s-5.8,2.6-5.8,5.8l0,0C16,116.7,18.6,119.3,21.8,119.3z M21.8,109
	c2.5,0,4.5,2,4.5,4.5c0,2.5-2,4.5-4.5,4.5s-4.5-2-4.5-4.5c0,0,0,0,0,0C17.3,111,19.3,109,21.8,109z"/>
<path d="M39.2,119.3c3.2,0,5.8-2.6,5.8-5.8c0-3.2-2.6-5.8-5.8-5.8c-3.2,0-5.8,2.6-5.8,5.8l0,0C33.4,116.7,36,119.3,39.2,119.3z
	 M39.2,109c2.5,0,4.5,2,4.5,4.5c0,2.5-2,4.5-4.5,4.5c-2.5,0-4.5-2-4.5-4.5c0,0,0,0,0,0C34.7,111,36.7,109,39.2,109z"/>
<path d="M56.6,119.3c3.2,0,5.8-2.6,5.8-5.8c0-3.2-2.6-5.8-5.8-5.8c-3.2,0-5.8,2.6-5.8,5.8l0,0C50.8,116.7,53.4,119.3,56.6,119.3z
	 M56.6,109c2.5,0,4.5,2,4.5,4.5c0,2.5-2,4.5-4.5,4.5c-2.5,0-4.5-2-4.5-4.5c0,0,0,0,0,0C52.1,111,54.1,109,56.6,109z"/>
<path d="M250.7,265.5h-21.6c-3.7,0-6.6,3-6.7,6.7v0.1c0,3.7,3,6.6,6.7,6.7h21.6c3.7,0,6.6-3,6.7-6.7v-0.1
	C257.3,268.5,254.3,265.5,250.7,265.5z M255.9,272.3c0,2.9-2.4,5.3-5.3,5.3h-21.6c-2.9,0-5.3-2.4-5.3-5.3v-0.1
	c0-2.9,2.4-5.3,5.3-5.3h21.6c2.9,0,5.3,2.4,5.3,5.3L255.9,272.3L255.9,272.3z"/>
<path d="M206.2,265.5h-61.8c-3.7,0-6.6,3-6.7,6.7v0.1c0,3.7,3,6.6,6.7,6.7h61.8c3.7,0,6.6-3,6.7-6.7v-0.1
	C212.9,268.5,209.9,265.5,206.2,265.5z M211.5,272.3c0,2.9-2.4,5.3-5.3,5.3h-61.8c-2.9,0-5.3-2.4-5.3-5.3v-0.1
	c0-2.9,2.4-5.3,5.3-5.3h61.8c2.9,0,5.3,2.4,5.3,5.3V272.3z"/>
<path d="M121.6,265.5H28.5c-3.7,0-6.6,3-6.7,6.7v0.1c0,3.7,3,6.6,6.7,6.7h93.1c3.7,0,6.6-3,6.7-6.7v-0.1
	C128.2,268.5,125.2,265.5,121.6,265.5z M126.8,272.3c0,2.9-2.4,5.3-5.3,5.3h-93c-2.9,0-5.3-2.4-5.3-5.3v-0.1c0-2.9,2.4-5.3,5.3-5.3
	h93.1c2.9,0,5.3,2.4,5.3,5.3L126.8,272.3L126.8,272.3z"/>
<path d="M171.9,254.9h8.2c3.7,0,6.6-3,6.7-6.7v-0.1c0-3.7-3-6.6-6.7-6.7H172c-3.7,0-6.6,3-6.7,6.7v0.1
	C165.3,251.9,168.2,254.9,171.9,254.9C171.9,254.9,171.9,254.9,171.9,254.9z M166.6,248.1c0-2.9,2.4-5.3,5.3-5.3h8.2
	c2.9,0,5.3,2.4,5.3,5.3v0.1c0,2.9-2.4,5.3-5.3,5.3H172c-2.9,0-5.3-2.4-5.3-5.3L166.6,248.1L166.6,248.1z"/>
<path d="M28.5,254.9h48.4c3.7,0,6.6-3,6.7-6.7v-0.1c0-3.7-3-6.6-6.7-6.7H28.5c-3.7,0-6.6,3-6.7,6.7v0.1
	C21.9,251.9,24.9,254.9,28.5,254.9z M23.2,248.1c0-2.9,2.4-5.3,5.3-5.3h48.4c2.9,0,5.3,2.4,5.3,5.3v0.1c0,2.9-2.4,5.3-5.3,5.3H28.5
	c-2.9,0-5.3-2.4-5.3-5.3V248.1z"/>
<path d="M28.5,230.9h73.4c3.7,0,6.6-3,6.7-6.7v-0.1c0-3.7-3-6.6-6.7-6.7h-2.7c0.8-0.3,1.5-0.6,2.2-1l9.2-4.8l7.8,16.3l0,0l0.3,0.7
	l0.2,0.5l0,0l5.9,12.3h-24.7c-3.7,0-6.6,3-6.7,6.6v0.1c0,3.7,3,6.6,6.7,6.7H149c3.7,0,6.6-3,6.7-6.7v-0.1c0-3.7-3-6.6-6.7-6.7h-21.6
	l32.2-14.5l-24.7-5.4l8.8-4.2l-14.1-22.2c-4.7-7.5-14.4-10-22.2-5.8L93,197.1c-1-1.8-4.2-7.8-7.8-14.4h40.9c3.1,0,5.6-2.5,5.6-5.6
	v-0.1c0-1.7-0.7-3.2-2-4.3h23.5v-29.5h-44.1v28.1H79c-2.7-5-5-9.1-5.6-10.4l2.7-3.2l-6.1-3.2l-1.5-2.7c-2-3.7-6.7-5.1-10.5-3.1
	c-0.1,0-0.2,0.1-0.2,0.1l-0.1,0.1c-0.1,0.1-0.2,0.1-0.4,0.2c0.4-0.9,0.6-1.9,0.6-2.9c0-3.8-3.1-6.9-6.9-6.9c-3.8,0-6.9,3.1-6.9,6.9
	c0,1.3,0.4,2.7,1.1,3.8c-2.8-2.4-7-2.1-9.5,0.6c0.1-0.5,0.2-1,0.2-1.6c0-3.8-3.1-6.8-6.9-6.8c-3.8,0-6.8,3.1-6.8,6.9
	c0,3.8,3.1,6.8,6.9,6.8c1.9,0,3.7-0.8,5-2.2c-0.1,0.5-0.2,1-0.2,1.6c0,3.8,3.1,6.9,6.9,6.9c3.8,0,6.9-3.1,6.9-6.9c0,0,0,0,0,0
	c0-1.3-0.4-2.7-1.1-3.8c1.2,1,2.8,1.6,4.4,1.6c1.3,0,2.5-0.3,3.6-1c-1.1,2.3-1.1,4.9,0.1,7.1l6.6,12.2L51,210.1H39.8
	c-2.4,0-4.3,1.9-4.3,4.3v0.1c0,1.1,0.5,2.2,1.2,3h-8.3c-3.7,0-6.6,3-6.7,6.7v0.1C21.9,228,24.9,230.9,28.5,230.9z M154.4,248.1v0.1
	c0,2.9-2.4,5.3-5.3,5.3h-48.8c-2.9,0-5.3-2.4-5.3-5.3v-0.1c0-2.9,2.4-5.3,5.3-5.3H149C152,242.8,154.3,245.2,154.4,248.1
	C154.4,248.1,154.4,248.1,154.4,248.1z M29.1,154.7c-3.1,0-5.5-2.5-5.5-5.5c0-3.1,2.5-5.5,5.5-5.5c3.1,0,5.5,2.5,5.5,5.5
	c0,0,0,0,0,0C34.6,152.3,32.2,154.7,29.1,154.7C29.1,154.7,29.1,154.7,29.1,154.7z M68,191.9l11.7,18.8c2,3.2,5,5.6,8.6,6.8H61.2
	L68,191.9z M133,222.5l22.5,5L126,240.6l-5.8-12.1l12.2-5.8L133,222.5z M92.5,198.9l15.5-8.4c7.2-3.8,16.1-1.5,20.4,5.4l13.3,21
	l-8.9,4.2l0,0l-0.4,0.2l-12.7,6l-8.4-17.5l-10.4,5.5c-7.1,3.7-15.8,1.3-20-5.4l-12.4-19.8l2.7-10.2l-1.3-0.4l-3.7,13.9h-9.3
	l5.5-20.8h15.8c3,5.5,7.4,13.7,13.9,25.7L92.5,198.9z M110.6,144.5h41.4v26.8h-41.4V144.5L110.6,144.5z M126.1,172.6
	c2.4,0,4.3,1.9,4.3,4.3v0.1c0,2.4-1.9,4.3-4.3,4.3h-25.5v-8.7L126.1,172.6L126.1,172.6z M99.3,172.6v8.7H84.5
	c-1.6-2.9-3.2-5.9-4.7-8.7H99.3z M67.3,152.6l1.6,2.9l0.1,0.2l5,2.6l-2.1,2.5v0.2c0.4,1,0.9,1.9,1.5,2.8c-2.4,1.6-5.6,1-7.4-1.3
	l-1.1,0.8c1.3,1.7,3.3,2.7,5.4,2.7c1.3,0,2.5-0.4,3.6-1.1c0.8,1.5,1.9,3.6,3.5,6.4H62.7l-4.6-8.6l7.8-11.9
	C66.5,151.2,67,151.8,67.3,152.6z M40.9,160.9c-3.1,0-5.5-2.5-5.5-5.5s2.5-5.5,5.5-5.5c3.1,0,5.5,2.5,5.5,5.5
	C46.4,158.5,44,160.9,40.9,160.9C40.9,160.9,40.9,160.9,40.9,160.9z M45.5,146.3c0-3.1,2.5-5.5,5.5-5.5c3.1,0,5.5,2.5,5.5,5.5
	c0,3.1-2.5,5.5-5.5,5.5c0,0,0,0,0,0C48,151.9,45.5,149.4,45.5,146.3C45.5,146.3,45.5,146.3,45.5,146.3L45.5,146.3z M58.4,150.1
	l0.1-0.1c1.5-0.9,3.3-1.1,5-0.6c0.4,0.1,0.9,0.3,1.3,0.5l-7.4,11.3l-1.3-2.5C54.3,155.7,55.4,151.9,58.4,150.1L58.4,150.1z
	 M36.9,214.5L36.9,214.5c0-1.7,1.3-3.1,3-3.1h12.2l4.5-16.7h9.3l-6.1,22.7h-20v0C38.2,217.4,36.9,216.1,36.9,214.5z M23.2,224.1
	c0-2.9,2.4-5.3,5.3-5.3h73.4c2.9,0,5.3,2.4,5.3,5.3v0.1c0,2.9-2.4,5.3-5.3,5.3H28.5c-2.9,0-5.3-2.4-5.3-5.3V224.1z"/>
<rect x="116.6" y="66.4" transform="matrix(0.9563 -0.2924 0.2924 0.9563 -15.4328 37.3564)" width="1.3" height="7.8"/>
<rect x="103.5" y="66.4" transform="matrix(0.9564 -0.2921 0.2921 0.9564 -16.0077 33.4848)" width="1.3" height="7.8"/>
<polygon points="107.4,87.9 124.8,87.9 122.5,80.3 121.2,80.7 123,86.6 108.4,86.6 106.4,80.3 105.1,80.7 "/>
<path d="M199.4,31.2c0,0.6-0.2,1.1-0.5,1.6l1.1,0.8c0.5-0.7,0.7-1.5,0.7-2.3c0-2.2-1.8-4.1-4-4.1c-1.4,0-2.6,0.7-3.4,1.8l1.1,0.8
	c0.5-0.8,1.3-1.2,2.2-1.2C198.2,28.5,199.4,29.7,199.4,31.2z"/>
<circle cx="186.9" cy="28.6" r="1.5"/>
<circle cx="66.4" cy="156.7" r="1.3"/>
<polygon class="st0" points="139.7,167.7 147.9,157.9 139.7,148.1 138.7,149 146.2,157.9 138.7,166.9 "/>
<polygon class="st0" points="120.9,148.1 112.7,157.9 120.9,167.7 121.9,166.9 114.4,157.9 121.9,149 "/>
<rect x="119.7" y="157.2" transform="matrix(0.3516 -0.9362 0.9362 0.3516 -63.2139 224.526)" class="st0" width="21.6" height="1.3"/>
<path d="M295,183.3h-16.7v-66.4c0-9.1-7.4-16.5-16.5-16.5h-17.9c8.8-3.7,12.9-13.8,9.2-22.6c-0.6-1.4-1.4-2.7-2.3-4l-28-35.9
	c-3.1-4-7.9-6.4-13-6.3l-16.2-18.1c-3.8-4.3-10.4-4.7-14.7-0.9c-0.1,0.1-0.1,0.1-0.2,0.2l-0.1,0.1c-4.1,3.9-4.4,10.4-0.5,14.6
	l0.7,0.7l-8.9,8.3l0.9,1l8.9-8.3l3.7,4l-1.4,1.3c-0.6,0.6-1,1.4-1,2.2c0,0.8,0.3,1.7,0.9,2.3l0,0c0.6,0.6,1.4,1,2.2,1
	c0.9,0,1.7-0.3,2.3-0.9l1.3-1.2l5.6,6.1l-17.9,33.6l-4.5-3.1c-3.3-2.3-7.8-1.4-10.1,1.8l-6.9,9.9c-0.8,1.1-1,2.4-0.8,3.7
	c0.2,1.3,1,2.4,2.1,3.1l0.1,0h-15.9l-10.3-35.3H78.5L91,100.3H21.5c-9.1,0-16.5,7.4-16.5,16.5v156.7c0,9.1,7.4,16.5,16.5,16.5h240.2
	c9.1,0,16.5-7.4,16.5-16.5v-51.6H295L295,183.3L295,183.3z M220.4,221.9h35.9v35.9h-35.9V221.9z M220.4,220.6v-35.9h35.9v35.9H220.4
	z M285.6,184.6v35.9h-28v-35.9L285.6,184.6z M261.7,101.7c8.4,0,15.2,6.8,15.2,15.2v8.5h-46.2l-12.3-23.7H261.7z M251.4,91.4
	c-2.6,5.5-8.2,9-14.3,8.9h-20.9l16.4,31.5L208.9,143l-20.8-41.1c-3.9-7.6-0.8-17,6.8-20.8c2.2-1.1,4.6-1.7,7-1.7h50.2
	C253.5,83.3,253.3,87.6,251.4,91.4z M244.2,154.1l-34.3,16.8c-2.6,1.3-5.7,0.3-7.1-2.2l0-0.1c-0.7-1.3-0.9-2.8-0.5-4.2
	c0.4-1.4,1.4-2.6,2.7-3.3l16.5-8.6l-2.9-12.6l14.7-6.9L244.2,154.1z M122.9,100.3l-1.7-5.8h50.5l1.7,5.8H122.9z M174.7,100.3
	l-1.7-5.8c1.9,0.8,4.1,0.9,6.1,0.4c2.7-0.7,5.1-2.4,6.5-4.9l0.4-0.8c-1.3,3.6-1.4,7.6-0.1,11.2L174.7,100.3z M198.5,67.2l8.4,10.8
	h-5c-5.1,0-9.9,2.3-13.1,6.2L198.5,67.2z M221.6,38.7l28,35.9c0.8,1,1.5,2.2,2.1,3.4h-43l-9.4-12.1l6.8-12.1l-1.2-0.7l-5.8,10.2
	L187.8,57l8.6-16.1c3.9-7.4,13.1-10.2,20.5-6.2C218.7,35.7,220.3,37,221.6,38.7L221.6,38.7z M179,26.6c-3.3-3.7-3.1-9.3,0.4-12.8
	l0.1-0.1c3.6-3.4,9.4-3.3,12.8,0.4c0.1,0.1,0.1,0.1,0.2,0.2l0.4,0.5l-13.4,12.5L179,26.6z M190.3,39c3.7-0.5,6.6-3.7,6.7-7.5
	l-1.3-0.1c-0.1,3.5-3,6.3-6.5,6.3c0,0,0,0,0,0l-1.5-1.7l-2.3,2.2c-0.7,0.7-1.9,0.6-2.6-0.1l0,0c-0.7-0.7-0.7-1.9,0-2.5c0,0,0,0,0,0
	l2.4-2.2l-4.6-5L194,15.8L208,31.5c-5.4,0.6-10.2,3.8-12.8,8.6l-1.4,2.6L190.3,39z M154.3,89.8c-0.2-0.9,0-1.9,0.5-2.6l6.9-10
	c1.9-2.7,5.6-3.4,8.3-1.5l5.7,3.9l11.4-21.5l11.3,6.4l-14,24.6c-1.2,2.2-3.3,3.7-5.7,4.3c-2.4,0.6-4.9,0.2-7-1.2l-8.4-5.4l-2.8,4.1
	c-1.1,1.6-3.2,2-4.8,1l-0.1,0C155,91.5,154.5,90.7,154.3,89.8z M161.8,91.9l2.1-3l6.8,4.4h-10.2C161,92.8,161.4,92.4,161.8,91.9
	L161.8,91.9z M137.8,93.2H97.1l-9.9-34h40.8L137.8,93.2z M80.3,59.2h5.4L96,94.6h23.7l1.7,5.8H92.3L80.3,59.2z M21.5,101.7h165
	c0.1,0.3,0.2,0.5,0.4,0.8l11.6,22.9H6.3v-8.5C6.4,108.5,13.1,101.7,21.5,101.7z M277,273.5c0,8.4-6.8,15.2-15.2,15.2H21.6
	c-8.4,0-15.2-6.8-15.2-15.2V126.7h192.8l9.1,18.1l9-4.2l2.6,11.3l-15.6,8.1c-3.3,1.8-4.6,5.9-2.8,9.2c0,0.1,0.1,0.1,0.1,0.2l0,0.1
	c1.2,2.1,3.5,3.4,5.9,3.4c1,0,2.1-0.2,3-0.7l35.6-17.5l-14.6-28.1H277v56.6h-57.9v75.9h38.6v-37.3H277L277,273.5z M293.7,220.5H287
	v-35.9h6.7L293.7,220.5z"/>
</svg>
